G04 EAGLE Gerber X2 export*
%TF.Part,Single*%
%TF.FileFunction,Copper,L2,Bot,Mixed*%
%TF.FilePolarity,Positive*%
%TF.GenerationSoftware,Autodesk,EAGLE,9.0.1*%
%TF.CreationDate,2018-08-01T04:25:01Z*%
G75*
%MOMM*%
%FSLAX34Y34*%
%LPD*%
%AMOC8*
5,1,8,0,0,1.08239X$1,22.5*%
G01*
%ADD10C,1.108000*%
%ADD11C,1.524000*%
%ADD12C,1.000000*%
%ADD13C,0.400000*%

G36*
X14807Y10180D02*
X14807Y10180D01*
X14925Y10198D01*
X14929Y10200D01*
X14933Y10200D01*
X15038Y10256D01*
X15144Y10311D01*
X15147Y10314D01*
X15150Y10316D01*
X15232Y10402D01*
X15315Y10487D01*
X15317Y10491D01*
X15320Y10494D01*
X15370Y10602D01*
X15421Y10709D01*
X15422Y10713D01*
X15423Y10717D01*
X15436Y10834D01*
X15451Y10953D01*
X15450Y10958D01*
X15450Y10961D01*
X15448Y10975D01*
X15425Y11119D01*
X13964Y16572D01*
X13964Y23428D01*
X15739Y30049D01*
X19166Y35986D01*
X24014Y40834D01*
X29951Y44261D01*
X36572Y46036D01*
X43428Y46036D01*
X50049Y44261D01*
X55986Y40834D01*
X60834Y35986D01*
X64261Y30049D01*
X66036Y23428D01*
X66036Y16572D01*
X64575Y11119D01*
X64563Y11000D01*
X64550Y10883D01*
X64550Y10878D01*
X64550Y10874D01*
X64577Y10759D01*
X64602Y10642D01*
X64604Y10639D01*
X64605Y10634D01*
X64667Y10533D01*
X64728Y10431D01*
X64731Y10428D01*
X64733Y10425D01*
X64825Y10348D01*
X64915Y10271D01*
X64919Y10270D01*
X64922Y10267D01*
X65032Y10224D01*
X65143Y10179D01*
X65148Y10179D01*
X65151Y10177D01*
X65165Y10177D01*
X65310Y10161D01*
X404690Y10161D01*
X404807Y10180D01*
X404925Y10198D01*
X404929Y10200D01*
X404933Y10200D01*
X405038Y10256D01*
X405144Y10311D01*
X405147Y10314D01*
X405150Y10316D01*
X405232Y10402D01*
X405315Y10487D01*
X405317Y10491D01*
X405320Y10494D01*
X405370Y10602D01*
X405421Y10709D01*
X405422Y10713D01*
X405423Y10717D01*
X405436Y10834D01*
X405451Y10953D01*
X405450Y10958D01*
X405450Y10961D01*
X405448Y10975D01*
X405425Y11119D01*
X403964Y16572D01*
X403964Y23428D01*
X405739Y30049D01*
X409166Y35986D01*
X414014Y40834D01*
X419951Y44261D01*
X426572Y46036D01*
X433428Y46036D01*
X438881Y44575D01*
X439000Y44563D01*
X439117Y44550D01*
X439122Y44550D01*
X439126Y44550D01*
X439241Y44577D01*
X439358Y44602D01*
X439361Y44604D01*
X439366Y44605D01*
X439467Y44667D01*
X439569Y44728D01*
X439572Y44731D01*
X439575Y44733D01*
X439652Y44825D01*
X439729Y44915D01*
X439730Y44919D01*
X439733Y44922D01*
X439776Y45032D01*
X439821Y45143D01*
X439821Y45148D01*
X439823Y45151D01*
X439823Y45165D01*
X439839Y45310D01*
X439839Y304690D01*
X439820Y304807D01*
X439802Y304925D01*
X439800Y304929D01*
X439800Y304933D01*
X439744Y305038D01*
X439689Y305144D01*
X439686Y305147D01*
X439684Y305150D01*
X439598Y305232D01*
X439513Y305315D01*
X439509Y305317D01*
X439506Y305320D01*
X439398Y305370D01*
X439291Y305421D01*
X439287Y305422D01*
X439283Y305423D01*
X439166Y305436D01*
X439047Y305451D01*
X439042Y305450D01*
X439039Y305450D01*
X439025Y305448D01*
X438881Y305425D01*
X433428Y303964D01*
X426572Y303964D01*
X419951Y305739D01*
X414014Y309166D01*
X409166Y314014D01*
X405739Y319951D01*
X403964Y326572D01*
X403964Y333428D01*
X405739Y340049D01*
X409166Y345986D01*
X411720Y348540D01*
X411762Y348598D01*
X411811Y348650D01*
X411833Y348697D01*
X411863Y348739D01*
X411884Y348808D01*
X411915Y348873D01*
X411920Y348925D01*
X411936Y348975D01*
X411934Y349046D01*
X411942Y349117D01*
X411931Y349168D01*
X411929Y349220D01*
X411905Y349288D01*
X411889Y349358D01*
X411863Y349403D01*
X411845Y349451D01*
X411800Y349507D01*
X411763Y349569D01*
X411724Y349603D01*
X411691Y349643D01*
X411631Y349682D01*
X411576Y349729D01*
X411528Y349748D01*
X411484Y349776D01*
X411415Y349794D01*
X411348Y349821D01*
X411277Y349829D01*
X411246Y349837D01*
X411222Y349835D01*
X411181Y349839D01*
X58819Y349839D01*
X58748Y349828D01*
X58676Y349826D01*
X58627Y349808D01*
X58576Y349800D01*
X58513Y349766D01*
X58445Y349741D01*
X58405Y349709D01*
X58358Y349684D01*
X58309Y349632D01*
X58253Y349588D01*
X58225Y349544D01*
X58189Y349506D01*
X58159Y349441D01*
X58120Y349381D01*
X58107Y349330D01*
X58085Y349283D01*
X58078Y349212D01*
X58060Y349142D01*
X58064Y349090D01*
X58058Y349039D01*
X58074Y348968D01*
X58079Y348897D01*
X58100Y348849D01*
X58111Y348798D01*
X58147Y348737D01*
X58176Y348671D01*
X58220Y348615D01*
X58237Y348587D01*
X58255Y348572D01*
X58280Y348540D01*
X60834Y345986D01*
X64261Y340049D01*
X66036Y333428D01*
X66036Y326572D01*
X64261Y319951D01*
X60834Y314014D01*
X55986Y309166D01*
X50049Y305739D01*
X43428Y303964D01*
X36572Y303964D01*
X29951Y305739D01*
X24014Y309166D01*
X19166Y314014D01*
X15739Y319951D01*
X13964Y326572D01*
X13964Y333428D01*
X15739Y340049D01*
X19166Y345986D01*
X21720Y348540D01*
X21762Y348598D01*
X21811Y348650D01*
X21833Y348697D01*
X21863Y348739D01*
X21884Y348808D01*
X21915Y348873D01*
X21920Y348925D01*
X21936Y348975D01*
X21934Y349046D01*
X21942Y349117D01*
X21931Y349168D01*
X21929Y349220D01*
X21905Y349288D01*
X21889Y349358D01*
X21863Y349403D01*
X21845Y349451D01*
X21800Y349507D01*
X21763Y349569D01*
X21724Y349603D01*
X21691Y349643D01*
X21631Y349682D01*
X21576Y349729D01*
X21528Y349748D01*
X21484Y349776D01*
X21415Y349794D01*
X21348Y349821D01*
X21277Y349829D01*
X21246Y349837D01*
X21222Y349835D01*
X21181Y349839D01*
X10922Y349839D01*
X10902Y349836D01*
X10883Y349838D01*
X10781Y349816D01*
X10679Y349800D01*
X10662Y349790D01*
X10642Y349786D01*
X10553Y349733D01*
X10462Y349684D01*
X10448Y349670D01*
X10431Y349660D01*
X10364Y349581D01*
X10292Y349506D01*
X10284Y349488D01*
X10271Y349473D01*
X10232Y349377D01*
X10189Y349283D01*
X10187Y349263D01*
X10179Y349245D01*
X10161Y349078D01*
X10161Y10922D01*
X10164Y10902D01*
X10162Y10883D01*
X10184Y10781D01*
X10200Y10679D01*
X10210Y10662D01*
X10214Y10642D01*
X10267Y10553D01*
X10316Y10462D01*
X10330Y10448D01*
X10340Y10431D01*
X10419Y10364D01*
X10494Y10292D01*
X10512Y10284D01*
X10527Y10271D01*
X10623Y10232D01*
X10717Y10189D01*
X10737Y10187D01*
X10755Y10179D01*
X10922Y10161D01*
X14690Y10161D01*
X14807Y10180D01*
G37*
%LPC*%
G36*
X29761Y52555D02*
X29761Y52555D01*
X26400Y53947D01*
X23827Y56520D01*
X22435Y59881D01*
X22435Y63519D01*
X23827Y66880D01*
X26400Y69453D01*
X29761Y70845D01*
X48639Y70845D01*
X52000Y69453D01*
X54573Y66880D01*
X55064Y65695D01*
X55125Y65595D01*
X55185Y65495D01*
X55190Y65491D01*
X55193Y65486D01*
X55283Y65411D01*
X55372Y65335D01*
X55378Y65333D01*
X55383Y65329D01*
X55491Y65287D01*
X55600Y65243D01*
X55608Y65242D01*
X55612Y65241D01*
X55631Y65240D01*
X55767Y65225D01*
X139925Y65225D01*
X140015Y65239D01*
X140106Y65247D01*
X140135Y65259D01*
X140167Y65264D01*
X140248Y65307D01*
X140332Y65343D01*
X140364Y65369D01*
X140385Y65380D01*
X140407Y65403D01*
X140463Y65448D01*
X178540Y103525D01*
X211460Y103525D01*
X221775Y93210D01*
X221775Y89125D01*
X221794Y89011D01*
X221811Y88894D01*
X221813Y88889D01*
X221814Y88883D01*
X221869Y88780D01*
X221922Y88675D01*
X221927Y88671D01*
X221930Y88665D01*
X222015Y88585D01*
X222098Y88503D01*
X222104Y88499D01*
X222108Y88496D01*
X222125Y88488D01*
X222245Y88422D01*
X222252Y88419D01*
X224062Y86609D01*
X224078Y86598D01*
X224090Y86582D01*
X224178Y86526D01*
X224261Y86466D01*
X224280Y86460D01*
X224297Y86449D01*
X224398Y86424D01*
X224497Y86393D01*
X224516Y86394D01*
X224536Y86389D01*
X224639Y86397D01*
X224742Y86400D01*
X224761Y86407D01*
X224781Y86408D01*
X224876Y86449D01*
X224973Y86484D01*
X224989Y86497D01*
X225007Y86504D01*
X225138Y86609D01*
X226252Y87723D01*
X226305Y87797D01*
X226365Y87867D01*
X226377Y87897D01*
X226396Y87923D01*
X226423Y88010D01*
X226457Y88095D01*
X226461Y88136D01*
X226468Y88158D01*
X226467Y88190D01*
X226475Y88262D01*
X226475Y98225D01*
X226461Y98315D01*
X226453Y98406D01*
X226441Y98435D01*
X226436Y98467D01*
X226393Y98548D01*
X226357Y98632D01*
X226331Y98664D01*
X226320Y98685D01*
X226297Y98707D01*
X226252Y98763D01*
X218763Y106252D01*
X218689Y106305D01*
X218620Y106365D01*
X218589Y106377D01*
X218563Y106396D01*
X218476Y106423D01*
X218391Y106457D01*
X218350Y106461D01*
X218328Y106468D01*
X218296Y106467D01*
X218225Y106475D01*
X136775Y106475D01*
X136685Y106461D01*
X136594Y106453D01*
X136565Y106441D01*
X136533Y106436D01*
X136452Y106393D01*
X136368Y106357D01*
X136336Y106331D01*
X136315Y106320D01*
X136293Y106297D01*
X136237Y106252D01*
X113560Y83575D01*
X55767Y83575D01*
X55652Y83556D01*
X55536Y83539D01*
X55530Y83537D01*
X55524Y83536D01*
X55421Y83481D01*
X55317Y83428D01*
X55312Y83423D01*
X55307Y83420D01*
X55227Y83336D01*
X55144Y83252D01*
X55141Y83246D01*
X55137Y83242D01*
X55130Y83225D01*
X55064Y83105D01*
X54573Y81920D01*
X52000Y79347D01*
X48639Y77955D01*
X29761Y77955D01*
X26400Y79347D01*
X23827Y81920D01*
X22435Y85281D01*
X22435Y88919D01*
X23827Y92280D01*
X26400Y94853D01*
X29761Y96245D01*
X48639Y96245D01*
X52000Y94853D01*
X54573Y92280D01*
X55064Y91095D01*
X55125Y90995D01*
X55185Y90895D01*
X55190Y90891D01*
X55193Y90886D01*
X55283Y90811D01*
X55372Y90735D01*
X55378Y90733D01*
X55383Y90729D01*
X55491Y90687D01*
X55600Y90643D01*
X55608Y90642D01*
X55612Y90641D01*
X55631Y90640D01*
X55767Y90625D01*
X110325Y90625D01*
X110415Y90639D01*
X110506Y90647D01*
X110535Y90659D01*
X110567Y90664D01*
X110648Y90707D01*
X110732Y90743D01*
X110764Y90769D01*
X110785Y90780D01*
X110807Y90803D01*
X110863Y90848D01*
X133540Y113525D01*
X221460Y113525D01*
X233525Y101460D01*
X233525Y89519D01*
X233544Y89404D01*
X233561Y89288D01*
X233563Y89282D01*
X233564Y89276D01*
X233619Y89174D01*
X233672Y89069D01*
X233677Y89064D01*
X233680Y89059D01*
X233764Y88978D01*
X233848Y88897D01*
X233854Y88893D01*
X233858Y88889D01*
X233875Y88882D01*
X233995Y88816D01*
X234952Y88419D01*
X236762Y86609D01*
X236778Y86598D01*
X236790Y86582D01*
X236878Y86526D01*
X236961Y86466D01*
X236980Y86460D01*
X236997Y86449D01*
X237098Y86424D01*
X237197Y86393D01*
X237216Y86394D01*
X237236Y86389D01*
X237339Y86397D01*
X237442Y86400D01*
X237461Y86407D01*
X237481Y86408D01*
X237576Y86449D01*
X237673Y86484D01*
X237689Y86497D01*
X237707Y86505D01*
X237838Y86609D01*
X239648Y88419D01*
X239655Y88422D01*
X239754Y88484D01*
X239855Y88544D01*
X239859Y88548D01*
X239864Y88552D01*
X239939Y88641D01*
X240015Y88731D01*
X240017Y88736D01*
X240021Y88741D01*
X240063Y88849D01*
X240107Y88959D01*
X240108Y88966D01*
X240109Y88971D01*
X240110Y88989D01*
X240125Y89125D01*
X240125Y109575D01*
X240111Y109665D01*
X240103Y109756D01*
X240091Y109785D01*
X240086Y109817D01*
X240043Y109898D01*
X240007Y109982D01*
X239981Y110014D01*
X239970Y110035D01*
X239947Y110057D01*
X239902Y110113D01*
X228763Y121252D01*
X228689Y121305D01*
X228620Y121365D01*
X228589Y121377D01*
X228563Y121396D01*
X228476Y121423D01*
X228391Y121457D01*
X228350Y121461D01*
X228328Y121468D01*
X228296Y121467D01*
X228225Y121475D01*
X126775Y121475D01*
X126685Y121461D01*
X126594Y121453D01*
X126565Y121441D01*
X126533Y121436D01*
X126452Y121393D01*
X126368Y121357D01*
X126336Y121331D01*
X126315Y121320D01*
X126293Y121297D01*
X126237Y121252D01*
X113960Y108975D01*
X55767Y108975D01*
X55652Y108956D01*
X55536Y108939D01*
X55530Y108937D01*
X55524Y108936D01*
X55422Y108881D01*
X55317Y108828D01*
X55312Y108823D01*
X55307Y108820D01*
X55227Y108736D01*
X55144Y108652D01*
X55141Y108646D01*
X55137Y108642D01*
X55130Y108625D01*
X55064Y108505D01*
X54573Y107320D01*
X52000Y104747D01*
X48639Y103355D01*
X29761Y103355D01*
X26400Y104747D01*
X23827Y107320D01*
X22435Y110681D01*
X22435Y114319D01*
X23827Y117680D01*
X26400Y120253D01*
X29761Y121645D01*
X48639Y121645D01*
X52000Y120253D01*
X54573Y117680D01*
X55064Y116495D01*
X55125Y116395D01*
X55185Y116295D01*
X55190Y116291D01*
X55193Y116286D01*
X55284Y116211D01*
X55372Y116135D01*
X55378Y116133D01*
X55383Y116129D01*
X55491Y116087D01*
X55600Y116043D01*
X55608Y116042D01*
X55612Y116041D01*
X55631Y116040D01*
X55767Y116025D01*
X110725Y116025D01*
X110815Y116039D01*
X110906Y116047D01*
X110935Y116059D01*
X110967Y116064D01*
X111048Y116107D01*
X111132Y116143D01*
X111164Y116169D01*
X111185Y116180D01*
X111207Y116203D01*
X111263Y116248D01*
X123540Y128525D01*
X231460Y128525D01*
X247175Y112810D01*
X247175Y89125D01*
X247194Y89011D01*
X247211Y88894D01*
X247213Y88889D01*
X247214Y88883D01*
X247269Y88780D01*
X247322Y88675D01*
X247327Y88671D01*
X247330Y88665D01*
X247415Y88585D01*
X247498Y88503D01*
X247504Y88499D01*
X247508Y88496D01*
X247525Y88488D01*
X247645Y88422D01*
X247652Y88419D01*
X249462Y86609D01*
X249478Y86598D01*
X249490Y86582D01*
X249578Y86526D01*
X249661Y86466D01*
X249680Y86460D01*
X249697Y86449D01*
X249798Y86424D01*
X249897Y86393D01*
X249916Y86394D01*
X249936Y86389D01*
X250039Y86397D01*
X250142Y86400D01*
X250161Y86407D01*
X250181Y86408D01*
X250276Y86449D01*
X250373Y86484D01*
X250389Y86497D01*
X250407Y86505D01*
X250538Y86609D01*
X252348Y88419D01*
X252355Y88422D01*
X252454Y88484D01*
X252555Y88544D01*
X252559Y88548D01*
X252564Y88552D01*
X252639Y88641D01*
X252715Y88731D01*
X252717Y88736D01*
X252721Y88741D01*
X252763Y88849D01*
X252807Y88959D01*
X252808Y88966D01*
X252809Y88971D01*
X252810Y88989D01*
X252825Y89125D01*
X252825Y121875D01*
X252811Y121965D01*
X252803Y122056D01*
X252791Y122085D01*
X252786Y122117D01*
X252743Y122198D01*
X252707Y122282D01*
X252681Y122314D01*
X252670Y122335D01*
X252647Y122357D01*
X252602Y122413D01*
X240863Y134152D01*
X240789Y134205D01*
X240720Y134265D01*
X240689Y134277D01*
X240663Y134296D01*
X240576Y134323D01*
X240491Y134357D01*
X240450Y134361D01*
X240428Y134368D01*
X240396Y134367D01*
X240325Y134375D01*
X55767Y134375D01*
X55652Y134356D01*
X55536Y134339D01*
X55530Y134337D01*
X55524Y134336D01*
X55422Y134281D01*
X55317Y134228D01*
X55312Y134223D01*
X55307Y134220D01*
X55227Y134136D01*
X55144Y134052D01*
X55141Y134046D01*
X55137Y134042D01*
X55130Y134025D01*
X55064Y133905D01*
X54573Y132720D01*
X52000Y130147D01*
X48639Y128755D01*
X29761Y128755D01*
X26400Y130147D01*
X23827Y132720D01*
X22435Y136081D01*
X22435Y139719D01*
X23827Y143080D01*
X26400Y145653D01*
X29761Y147045D01*
X48639Y147045D01*
X52000Y145653D01*
X54573Y143080D01*
X55064Y141895D01*
X55125Y141795D01*
X55185Y141695D01*
X55190Y141691D01*
X55193Y141686D01*
X55284Y141611D01*
X55372Y141535D01*
X55378Y141533D01*
X55383Y141529D01*
X55491Y141487D01*
X55600Y141443D01*
X55608Y141442D01*
X55612Y141441D01*
X55631Y141440D01*
X55767Y141425D01*
X243560Y141425D01*
X259875Y125110D01*
X259875Y89125D01*
X259894Y89011D01*
X259911Y88894D01*
X259913Y88889D01*
X259914Y88883D01*
X259969Y88780D01*
X260022Y88675D01*
X260027Y88671D01*
X260030Y88665D01*
X260115Y88585D01*
X260198Y88503D01*
X260204Y88499D01*
X260208Y88496D01*
X260225Y88488D01*
X260345Y88422D01*
X260352Y88419D01*
X262162Y86609D01*
X262178Y86598D01*
X262190Y86582D01*
X262278Y86526D01*
X262361Y86466D01*
X262380Y86460D01*
X262397Y86449D01*
X262498Y86424D01*
X262597Y86393D01*
X262616Y86394D01*
X262636Y86389D01*
X262739Y86397D01*
X262842Y86400D01*
X262861Y86407D01*
X262881Y86408D01*
X262976Y86449D01*
X263073Y86484D01*
X263089Y86497D01*
X263107Y86505D01*
X263238Y86609D01*
X265048Y88419D01*
X265055Y88422D01*
X265154Y88484D01*
X265255Y88544D01*
X265259Y88548D01*
X265264Y88552D01*
X265339Y88641D01*
X265415Y88731D01*
X265417Y88736D01*
X265421Y88741D01*
X265463Y88849D01*
X265507Y88959D01*
X265508Y88966D01*
X265509Y88971D01*
X265510Y88989D01*
X265525Y89125D01*
X265525Y129175D01*
X265511Y129265D01*
X265503Y129356D01*
X265491Y129385D01*
X265486Y129417D01*
X265443Y129498D01*
X265407Y129582D01*
X265381Y129614D01*
X265370Y129635D01*
X265347Y129657D01*
X265302Y129713D01*
X235463Y159552D01*
X235389Y159605D01*
X235320Y159665D01*
X235289Y159677D01*
X235263Y159696D01*
X235176Y159723D01*
X235091Y159757D01*
X235050Y159761D01*
X235028Y159768D01*
X234996Y159767D01*
X234925Y159775D01*
X55767Y159775D01*
X55652Y159756D01*
X55536Y159739D01*
X55530Y159737D01*
X55524Y159736D01*
X55422Y159681D01*
X55317Y159628D01*
X55312Y159623D01*
X55307Y159620D01*
X55227Y159536D01*
X55144Y159452D01*
X55141Y159446D01*
X55137Y159442D01*
X55130Y159425D01*
X55064Y159305D01*
X54573Y158120D01*
X52000Y155547D01*
X48639Y154155D01*
X29761Y154155D01*
X26400Y155547D01*
X23827Y158120D01*
X22435Y161481D01*
X22435Y165119D01*
X23827Y168480D01*
X26400Y171053D01*
X29761Y172445D01*
X48639Y172445D01*
X52000Y171053D01*
X54573Y168480D01*
X55064Y167295D01*
X55125Y167195D01*
X55185Y167095D01*
X55190Y167091D01*
X55193Y167086D01*
X55284Y167011D01*
X55372Y166935D01*
X55378Y166933D01*
X55383Y166929D01*
X55491Y166887D01*
X55600Y166843D01*
X55608Y166842D01*
X55612Y166841D01*
X55631Y166840D01*
X55767Y166825D01*
X238160Y166825D01*
X272575Y132410D01*
X272575Y89125D01*
X272594Y89011D01*
X272611Y88894D01*
X272613Y88889D01*
X272614Y88883D01*
X272669Y88780D01*
X272722Y88675D01*
X272727Y88671D01*
X272730Y88665D01*
X272815Y88585D01*
X272898Y88503D01*
X272904Y88499D01*
X272908Y88496D01*
X272925Y88488D01*
X273045Y88422D01*
X273052Y88419D01*
X274862Y86609D01*
X274878Y86598D01*
X274890Y86582D01*
X274978Y86526D01*
X275061Y86466D01*
X275080Y86460D01*
X275097Y86449D01*
X275198Y86424D01*
X275297Y86393D01*
X275316Y86394D01*
X275336Y86389D01*
X275439Y86397D01*
X275542Y86400D01*
X275561Y86407D01*
X275581Y86408D01*
X275676Y86449D01*
X275773Y86484D01*
X275789Y86497D01*
X275807Y86505D01*
X275938Y86609D01*
X276252Y86923D01*
X276305Y86997D01*
X276365Y87067D01*
X276377Y87097D01*
X276396Y87123D01*
X276423Y87210D01*
X276457Y87295D01*
X276461Y87336D01*
X276468Y87358D01*
X276467Y87390D01*
X276475Y87462D01*
X276475Y138225D01*
X276461Y138315D01*
X276453Y138406D01*
X276441Y138435D01*
X276436Y138467D01*
X276393Y138548D01*
X276357Y138632D01*
X276331Y138664D01*
X276320Y138685D01*
X276297Y138707D01*
X276252Y138763D01*
X230063Y184952D01*
X229989Y185005D01*
X229920Y185065D01*
X229889Y185077D01*
X229863Y185096D01*
X229776Y185123D01*
X229691Y185157D01*
X229650Y185161D01*
X229628Y185168D01*
X229596Y185167D01*
X229525Y185175D01*
X55767Y185175D01*
X55652Y185156D01*
X55536Y185139D01*
X55530Y185137D01*
X55524Y185136D01*
X55422Y185081D01*
X55317Y185028D01*
X55312Y185023D01*
X55307Y185020D01*
X55227Y184936D01*
X55144Y184852D01*
X55141Y184846D01*
X55137Y184842D01*
X55130Y184825D01*
X55064Y184705D01*
X54573Y183520D01*
X52000Y180947D01*
X48639Y179555D01*
X29761Y179555D01*
X26400Y180947D01*
X23827Y183520D01*
X22435Y186881D01*
X22435Y190519D01*
X23827Y193880D01*
X26400Y196453D01*
X29761Y197845D01*
X48639Y197845D01*
X52000Y196453D01*
X54573Y193880D01*
X55064Y192695D01*
X55125Y192595D01*
X55185Y192495D01*
X55190Y192491D01*
X55193Y192486D01*
X55284Y192411D01*
X55372Y192335D01*
X55378Y192333D01*
X55383Y192329D01*
X55491Y192287D01*
X55600Y192243D01*
X55608Y192242D01*
X55612Y192241D01*
X55631Y192240D01*
X55767Y192225D01*
X232760Y192225D01*
X283525Y141460D01*
X283525Y89850D01*
X283544Y89736D01*
X283561Y89619D01*
X283563Y89614D01*
X283564Y89608D01*
X283619Y89505D01*
X283672Y89400D01*
X283677Y89396D01*
X283680Y89390D01*
X283764Y89310D01*
X283848Y89228D01*
X283854Y89224D01*
X283858Y89221D01*
X283875Y89213D01*
X283995Y89147D01*
X285752Y88419D01*
X286883Y87288D01*
X286960Y87233D01*
X287032Y87172D01*
X287059Y87161D01*
X287083Y87144D01*
X287173Y87117D01*
X287261Y87082D01*
X287290Y87081D01*
X287318Y87072D01*
X287412Y87074D01*
X287506Y87070D01*
X287535Y87078D01*
X287564Y87078D01*
X287653Y87111D01*
X287743Y87136D01*
X287767Y87153D01*
X287795Y87163D01*
X287869Y87222D01*
X287946Y87275D01*
X287970Y87303D01*
X287987Y87317D01*
X288005Y87344D01*
X288054Y87403D01*
X288173Y87581D01*
X289299Y88707D01*
X290622Y89591D01*
X292093Y90200D01*
X292951Y90371D01*
X292951Y72088D01*
X292954Y72069D01*
X292952Y72049D01*
X292974Y71947D01*
X292990Y71845D01*
X293000Y71828D01*
X293004Y71808D01*
X293057Y71719D01*
X293106Y71628D01*
X293120Y71614D01*
X293130Y71597D01*
X293209Y71530D01*
X293284Y71459D01*
X293302Y71450D01*
X293317Y71437D01*
X293413Y71399D01*
X293507Y71355D01*
X293527Y71353D01*
X293545Y71346D01*
X293469Y71333D01*
X293452Y71324D01*
X293432Y71320D01*
X293343Y71267D01*
X293252Y71218D01*
X293238Y71204D01*
X293221Y71194D01*
X293154Y71115D01*
X293082Y71040D01*
X293074Y71022D01*
X293061Y71007D01*
X293022Y70910D01*
X292979Y70817D01*
X292977Y70797D01*
X292969Y70779D01*
X292951Y70612D01*
X292951Y60149D01*
X282488Y60149D01*
X282469Y60146D01*
X282449Y60148D01*
X282347Y60126D01*
X282245Y60110D01*
X282228Y60100D01*
X282208Y60096D01*
X282119Y60043D01*
X282028Y59994D01*
X282014Y59980D01*
X281997Y59970D01*
X281930Y59891D01*
X281859Y59816D01*
X281850Y59798D01*
X281837Y59783D01*
X281799Y59687D01*
X281755Y59593D01*
X281753Y59573D01*
X281746Y59555D01*
X281733Y59631D01*
X281724Y59648D01*
X281720Y59668D01*
X281667Y59757D01*
X281618Y59848D01*
X281604Y59862D01*
X281594Y59879D01*
X281515Y59946D01*
X281440Y60018D01*
X281422Y60026D01*
X281407Y60039D01*
X281310Y60078D01*
X281217Y60121D01*
X281197Y60123D01*
X281179Y60131D01*
X281012Y60149D01*
X269788Y60149D01*
X269769Y60146D01*
X269749Y60148D01*
X269647Y60126D01*
X269545Y60110D01*
X269528Y60100D01*
X269508Y60096D01*
X269419Y60043D01*
X269328Y59994D01*
X269314Y59980D01*
X269297Y59970D01*
X269230Y59891D01*
X269159Y59816D01*
X269150Y59798D01*
X269137Y59783D01*
X269099Y59687D01*
X269055Y59593D01*
X269053Y59573D01*
X269046Y59555D01*
X269033Y59631D01*
X269024Y59648D01*
X269020Y59668D01*
X268967Y59757D01*
X268918Y59848D01*
X268904Y59862D01*
X268894Y59879D01*
X268815Y59946D01*
X268740Y60018D01*
X268722Y60026D01*
X268707Y60039D01*
X268610Y60078D01*
X268517Y60121D01*
X268497Y60123D01*
X268479Y60131D01*
X268312Y60149D01*
X257088Y60149D01*
X257069Y60146D01*
X257049Y60148D01*
X256947Y60126D01*
X256845Y60110D01*
X256828Y60100D01*
X256808Y60096D01*
X256719Y60043D01*
X256628Y59994D01*
X256614Y59980D01*
X256597Y59970D01*
X256530Y59891D01*
X256459Y59816D01*
X256450Y59798D01*
X256437Y59783D01*
X256399Y59687D01*
X256355Y59593D01*
X256353Y59573D01*
X256346Y59555D01*
X256333Y59631D01*
X256324Y59648D01*
X256320Y59668D01*
X256267Y59757D01*
X256218Y59848D01*
X256204Y59862D01*
X256194Y59879D01*
X256115Y59946D01*
X256040Y60018D01*
X256022Y60026D01*
X256007Y60039D01*
X255910Y60078D01*
X255817Y60121D01*
X255797Y60123D01*
X255779Y60131D01*
X255612Y60149D01*
X244388Y60149D01*
X244369Y60146D01*
X244349Y60148D01*
X244247Y60126D01*
X244145Y60110D01*
X244128Y60100D01*
X244108Y60096D01*
X244019Y60043D01*
X243928Y59994D01*
X243914Y59980D01*
X243897Y59970D01*
X243830Y59891D01*
X243759Y59816D01*
X243750Y59798D01*
X243737Y59783D01*
X243699Y59687D01*
X243655Y59593D01*
X243653Y59573D01*
X243646Y59555D01*
X243633Y59631D01*
X243624Y59648D01*
X243620Y59668D01*
X243567Y59757D01*
X243518Y59848D01*
X243504Y59862D01*
X243494Y59879D01*
X243415Y59946D01*
X243340Y60018D01*
X243322Y60026D01*
X243307Y60039D01*
X243210Y60078D01*
X243117Y60121D01*
X243097Y60123D01*
X243079Y60131D01*
X242912Y60149D01*
X231688Y60149D01*
X231669Y60146D01*
X231649Y60148D01*
X231547Y60126D01*
X231445Y60110D01*
X231428Y60100D01*
X231408Y60096D01*
X231319Y60043D01*
X231228Y59994D01*
X231214Y59980D01*
X231197Y59970D01*
X231130Y59891D01*
X231059Y59816D01*
X231050Y59798D01*
X231037Y59783D01*
X230999Y59687D01*
X230955Y59593D01*
X230953Y59573D01*
X230946Y59555D01*
X230933Y59631D01*
X230924Y59648D01*
X230920Y59668D01*
X230867Y59757D01*
X230818Y59848D01*
X230804Y59862D01*
X230794Y59879D01*
X230715Y59946D01*
X230640Y60018D01*
X230622Y60026D01*
X230607Y60039D01*
X230510Y60078D01*
X230417Y60121D01*
X230397Y60123D01*
X230379Y60131D01*
X230212Y60149D01*
X218988Y60149D01*
X218969Y60146D01*
X218949Y60148D01*
X218847Y60126D01*
X218745Y60110D01*
X218728Y60100D01*
X218708Y60096D01*
X218619Y60043D01*
X218528Y59994D01*
X218514Y59980D01*
X218497Y59970D01*
X218430Y59891D01*
X218359Y59816D01*
X218350Y59798D01*
X218337Y59783D01*
X218299Y59687D01*
X218255Y59593D01*
X218253Y59573D01*
X218246Y59555D01*
X218233Y59631D01*
X218224Y59648D01*
X218220Y59668D01*
X218167Y59757D01*
X218118Y59848D01*
X218104Y59862D01*
X218094Y59879D01*
X218015Y59946D01*
X217940Y60018D01*
X217922Y60026D01*
X217907Y60039D01*
X217810Y60078D01*
X217717Y60121D01*
X217697Y60123D01*
X217679Y60131D01*
X217512Y60149D01*
X207049Y60149D01*
X207049Y70612D01*
X207046Y70631D01*
X207048Y70651D01*
X207026Y70753D01*
X207010Y70855D01*
X207000Y70872D01*
X206996Y70892D01*
X206943Y70981D01*
X206894Y71072D01*
X206880Y71086D01*
X206870Y71103D01*
X206791Y71170D01*
X206716Y71241D01*
X206698Y71250D01*
X206683Y71263D01*
X206587Y71301D01*
X206493Y71345D01*
X206473Y71347D01*
X206455Y71354D01*
X206531Y71367D01*
X206548Y71376D01*
X206568Y71380D01*
X206657Y71433D01*
X206748Y71482D01*
X206762Y71496D01*
X206779Y71506D01*
X206846Y71585D01*
X206918Y71660D01*
X206926Y71678D01*
X206939Y71693D01*
X206978Y71790D01*
X207021Y71883D01*
X207023Y71903D01*
X207031Y71921D01*
X207049Y72088D01*
X207049Y90371D01*
X207907Y90200D01*
X209378Y89591D01*
X210701Y88707D01*
X211827Y87581D01*
X211946Y87403D01*
X212010Y87334D01*
X212069Y87261D01*
X212094Y87245D01*
X212114Y87223D01*
X212196Y87179D01*
X212276Y87128D01*
X212304Y87121D01*
X212330Y87107D01*
X212423Y87091D01*
X212514Y87068D01*
X212544Y87070D01*
X212572Y87065D01*
X212666Y87079D01*
X212760Y87087D01*
X212786Y87098D01*
X212815Y87103D01*
X212899Y87146D01*
X212986Y87183D01*
X213015Y87206D01*
X213034Y87216D01*
X213057Y87240D01*
X213117Y87288D01*
X214248Y88419D01*
X214255Y88422D01*
X214354Y88484D01*
X214455Y88544D01*
X214459Y88548D01*
X214464Y88552D01*
X214539Y88641D01*
X214615Y88731D01*
X214617Y88736D01*
X214621Y88741D01*
X214663Y88849D01*
X214707Y88959D01*
X214708Y88966D01*
X214709Y88971D01*
X214710Y88989D01*
X214725Y89125D01*
X214725Y89975D01*
X214711Y90065D01*
X214703Y90156D01*
X214691Y90185D01*
X214686Y90217D01*
X214643Y90298D01*
X214607Y90382D01*
X214581Y90414D01*
X214570Y90435D01*
X214547Y90457D01*
X214502Y90513D01*
X208763Y96252D01*
X208689Y96305D01*
X208620Y96365D01*
X208589Y96377D01*
X208563Y96396D01*
X208476Y96423D01*
X208391Y96457D01*
X208350Y96461D01*
X208328Y96468D01*
X208296Y96467D01*
X208225Y96475D01*
X181775Y96475D01*
X181685Y96461D01*
X181594Y96453D01*
X181565Y96441D01*
X181533Y96436D01*
X181452Y96393D01*
X181368Y96357D01*
X181336Y96331D01*
X181315Y96320D01*
X181293Y96297D01*
X181237Y96252D01*
X143160Y58175D01*
X55767Y58175D01*
X55652Y58156D01*
X55536Y58139D01*
X55530Y58137D01*
X55524Y58136D01*
X55421Y58081D01*
X55317Y58028D01*
X55312Y58023D01*
X55307Y58020D01*
X55227Y57936D01*
X55144Y57852D01*
X55141Y57846D01*
X55137Y57842D01*
X55130Y57825D01*
X55064Y57705D01*
X54573Y56520D01*
X52000Y53947D01*
X48639Y52555D01*
X29761Y52555D01*
G37*
%LPD*%
%LPC*%
G36*
X173702Y243475D02*
X173702Y243475D01*
X171304Y244469D01*
X169362Y246411D01*
X157620Y258152D01*
X157546Y258205D01*
X157477Y258265D01*
X157447Y258277D01*
X157421Y258296D01*
X157334Y258323D01*
X157249Y258357D01*
X157208Y258361D01*
X157186Y258368D01*
X157153Y258367D01*
X157082Y258375D01*
X53543Y258375D01*
X53453Y258361D01*
X53362Y258353D01*
X53332Y258341D01*
X53300Y258336D01*
X53220Y258293D01*
X53136Y258257D01*
X53104Y258231D01*
X53083Y258220D01*
X53061Y258197D01*
X53005Y258152D01*
X52000Y257147D01*
X48639Y255755D01*
X29761Y255755D01*
X26400Y257147D01*
X23827Y259720D01*
X22435Y263081D01*
X22435Y266719D01*
X23827Y270080D01*
X26400Y272653D01*
X29761Y274045D01*
X31914Y274045D01*
X31934Y274048D01*
X31953Y274046D01*
X32055Y274068D01*
X32157Y274084D01*
X32174Y274094D01*
X32194Y274098D01*
X32283Y274151D01*
X32374Y274200D01*
X32388Y274214D01*
X32405Y274224D01*
X32472Y274303D01*
X32544Y274378D01*
X32552Y274396D01*
X32565Y274411D01*
X32604Y274507D01*
X32647Y274601D01*
X32649Y274621D01*
X32657Y274639D01*
X32675Y274806D01*
X32675Y280394D01*
X32672Y280414D01*
X32674Y280433D01*
X32652Y280535D01*
X32636Y280637D01*
X32626Y280654D01*
X32622Y280674D01*
X32569Y280763D01*
X32520Y280854D01*
X32506Y280868D01*
X32496Y280885D01*
X32417Y280952D01*
X32342Y281024D01*
X32324Y281032D01*
X32309Y281045D01*
X32213Y281084D01*
X32119Y281127D01*
X32099Y281129D01*
X32081Y281137D01*
X31914Y281155D01*
X29761Y281155D01*
X26400Y282547D01*
X23827Y285120D01*
X22435Y288481D01*
X22435Y292119D01*
X23827Y295480D01*
X26400Y298053D01*
X29761Y299445D01*
X48639Y299445D01*
X52000Y298053D01*
X54573Y295480D01*
X55965Y292119D01*
X55965Y288481D01*
X54573Y285120D01*
X52000Y282547D01*
X48639Y281155D01*
X46486Y281155D01*
X46466Y281152D01*
X46447Y281154D01*
X46345Y281132D01*
X46243Y281116D01*
X46226Y281106D01*
X46206Y281102D01*
X46117Y281049D01*
X46026Y281000D01*
X46012Y280986D01*
X45995Y280976D01*
X45928Y280897D01*
X45856Y280822D01*
X45848Y280804D01*
X45835Y280789D01*
X45796Y280693D01*
X45753Y280599D01*
X45751Y280579D01*
X45743Y280561D01*
X45725Y280394D01*
X45725Y274806D01*
X45728Y274786D01*
X45726Y274767D01*
X45748Y274665D01*
X45764Y274563D01*
X45774Y274546D01*
X45778Y274526D01*
X45831Y274437D01*
X45880Y274346D01*
X45894Y274332D01*
X45904Y274315D01*
X45983Y274248D01*
X46058Y274176D01*
X46076Y274168D01*
X46091Y274155D01*
X46187Y274116D01*
X46281Y274073D01*
X46301Y274071D01*
X46319Y274063D01*
X46486Y274045D01*
X48639Y274045D01*
X52000Y272653D01*
X53005Y271648D01*
X53079Y271595D01*
X53148Y271535D01*
X53178Y271523D01*
X53205Y271504D01*
X53292Y271477D01*
X53376Y271443D01*
X53417Y271439D01*
X53440Y271432D01*
X53472Y271433D01*
X53543Y271425D01*
X161398Y271425D01*
X163796Y270431D01*
X177480Y256748D01*
X177554Y256695D01*
X177623Y256635D01*
X177653Y256623D01*
X177679Y256604D01*
X177766Y256577D01*
X177851Y256543D01*
X177892Y256539D01*
X177914Y256532D01*
X177947Y256533D01*
X178018Y256525D01*
X210964Y256525D01*
X210984Y256528D01*
X211003Y256526D01*
X211105Y256548D01*
X211207Y256564D01*
X211224Y256574D01*
X211244Y256578D01*
X211333Y256631D01*
X211424Y256680D01*
X211438Y256694D01*
X211455Y256704D01*
X211522Y256783D01*
X211594Y256858D01*
X211602Y256876D01*
X211615Y256891D01*
X211654Y256987D01*
X211697Y257081D01*
X211699Y257101D01*
X211707Y257119D01*
X211725Y257286D01*
X211725Y270553D01*
X211706Y270671D01*
X211687Y270790D01*
X211686Y270793D01*
X211686Y270796D01*
X211630Y270901D01*
X211574Y271009D01*
X211572Y271011D01*
X211570Y271014D01*
X211484Y271095D01*
X211397Y271179D01*
X211394Y271181D01*
X211392Y271183D01*
X211284Y271233D01*
X211175Y271285D01*
X211172Y271285D01*
X211169Y271287D01*
X211051Y271300D01*
X210931Y271314D01*
X210928Y271313D01*
X210925Y271314D01*
X210808Y271288D01*
X210690Y271264D01*
X210687Y271262D01*
X210684Y271261D01*
X210675Y271256D01*
X210541Y271186D01*
X209378Y270409D01*
X207907Y269800D01*
X207049Y269629D01*
X207049Y287912D01*
X207046Y287931D01*
X207048Y287951D01*
X207026Y288053D01*
X207010Y288155D01*
X207000Y288172D01*
X206996Y288192D01*
X206943Y288281D01*
X206894Y288372D01*
X206880Y288386D01*
X206870Y288403D01*
X206791Y288470D01*
X206716Y288541D01*
X206698Y288550D01*
X206683Y288563D01*
X206587Y288601D01*
X206493Y288645D01*
X206473Y288647D01*
X206455Y288654D01*
X206531Y288667D01*
X206548Y288676D01*
X206568Y288680D01*
X206657Y288733D01*
X206748Y288782D01*
X206762Y288796D01*
X206779Y288806D01*
X206846Y288885D01*
X206918Y288960D01*
X206926Y288978D01*
X206939Y288993D01*
X206978Y289090D01*
X207021Y289183D01*
X207023Y289203D01*
X207031Y289221D01*
X207049Y289388D01*
X207049Y299851D01*
X217512Y299851D01*
X217531Y299854D01*
X217551Y299852D01*
X217653Y299874D01*
X217755Y299890D01*
X217772Y299900D01*
X217792Y299904D01*
X217881Y299957D01*
X217972Y300006D01*
X217986Y300020D01*
X218003Y300030D01*
X218070Y300109D01*
X218141Y300184D01*
X218150Y300202D01*
X218163Y300217D01*
X218201Y300313D01*
X218245Y300407D01*
X218247Y300427D01*
X218254Y300445D01*
X218267Y300369D01*
X218276Y300352D01*
X218280Y300332D01*
X218333Y300243D01*
X218382Y300152D01*
X218396Y300138D01*
X218406Y300121D01*
X218485Y300054D01*
X218560Y299982D01*
X218578Y299974D01*
X218593Y299961D01*
X218690Y299922D01*
X218783Y299879D01*
X218803Y299877D01*
X218821Y299869D01*
X218988Y299851D01*
X230212Y299851D01*
X230231Y299854D01*
X230251Y299852D01*
X230353Y299874D01*
X230455Y299890D01*
X230472Y299900D01*
X230492Y299904D01*
X230581Y299957D01*
X230672Y300006D01*
X230686Y300020D01*
X230703Y300030D01*
X230770Y300109D01*
X230841Y300184D01*
X230850Y300202D01*
X230863Y300217D01*
X230901Y300313D01*
X230945Y300407D01*
X230947Y300427D01*
X230954Y300445D01*
X230967Y300369D01*
X230976Y300352D01*
X230980Y300332D01*
X231033Y300243D01*
X231082Y300152D01*
X231096Y300138D01*
X231106Y300121D01*
X231185Y300054D01*
X231260Y299982D01*
X231278Y299974D01*
X231293Y299961D01*
X231390Y299922D01*
X231483Y299879D01*
X231503Y299877D01*
X231521Y299869D01*
X231688Y299851D01*
X242912Y299851D01*
X242931Y299854D01*
X242951Y299852D01*
X243053Y299874D01*
X243155Y299890D01*
X243172Y299900D01*
X243192Y299904D01*
X243281Y299957D01*
X243372Y300006D01*
X243386Y300020D01*
X243403Y300030D01*
X243470Y300109D01*
X243541Y300184D01*
X243550Y300202D01*
X243563Y300217D01*
X243601Y300313D01*
X243645Y300407D01*
X243647Y300427D01*
X243654Y300445D01*
X243667Y300369D01*
X243676Y300352D01*
X243680Y300332D01*
X243733Y300243D01*
X243782Y300152D01*
X243796Y300138D01*
X243806Y300121D01*
X243885Y300054D01*
X243960Y299982D01*
X243978Y299974D01*
X243993Y299961D01*
X244090Y299922D01*
X244183Y299879D01*
X244203Y299877D01*
X244221Y299869D01*
X244388Y299851D01*
X255612Y299851D01*
X255631Y299854D01*
X255651Y299852D01*
X255753Y299874D01*
X255855Y299890D01*
X255872Y299900D01*
X255892Y299904D01*
X255981Y299957D01*
X256072Y300006D01*
X256086Y300020D01*
X256103Y300030D01*
X256170Y300109D01*
X256241Y300184D01*
X256250Y300202D01*
X256263Y300217D01*
X256301Y300313D01*
X256345Y300407D01*
X256347Y300427D01*
X256354Y300445D01*
X256367Y300369D01*
X256376Y300352D01*
X256380Y300332D01*
X256433Y300243D01*
X256482Y300152D01*
X256496Y300138D01*
X256506Y300121D01*
X256585Y300054D01*
X256660Y299982D01*
X256678Y299974D01*
X256693Y299961D01*
X256790Y299922D01*
X256883Y299879D01*
X256903Y299877D01*
X256921Y299869D01*
X257088Y299851D01*
X268312Y299851D01*
X268331Y299854D01*
X268351Y299852D01*
X268453Y299874D01*
X268555Y299890D01*
X268572Y299900D01*
X268592Y299904D01*
X268681Y299957D01*
X268772Y300006D01*
X268786Y300020D01*
X268803Y300030D01*
X268870Y300109D01*
X268941Y300184D01*
X268950Y300202D01*
X268963Y300217D01*
X269001Y300313D01*
X269045Y300407D01*
X269047Y300427D01*
X269054Y300445D01*
X269067Y300369D01*
X269076Y300352D01*
X269080Y300332D01*
X269133Y300243D01*
X269182Y300152D01*
X269196Y300138D01*
X269206Y300121D01*
X269285Y300054D01*
X269360Y299982D01*
X269378Y299974D01*
X269393Y299961D01*
X269490Y299922D01*
X269583Y299879D01*
X269603Y299877D01*
X269621Y299869D01*
X269788Y299851D01*
X281012Y299851D01*
X281031Y299854D01*
X281051Y299852D01*
X281153Y299874D01*
X281255Y299890D01*
X281272Y299900D01*
X281292Y299904D01*
X281381Y299957D01*
X281472Y300006D01*
X281486Y300020D01*
X281503Y300030D01*
X281570Y300109D01*
X281641Y300184D01*
X281650Y300202D01*
X281663Y300217D01*
X281701Y300313D01*
X281745Y300407D01*
X281747Y300427D01*
X281754Y300445D01*
X281767Y300369D01*
X281776Y300352D01*
X281780Y300332D01*
X281833Y300243D01*
X281882Y300152D01*
X281896Y300138D01*
X281906Y300121D01*
X281985Y300054D01*
X282060Y299982D01*
X282078Y299974D01*
X282093Y299961D01*
X282190Y299922D01*
X282283Y299879D01*
X282303Y299877D01*
X282321Y299869D01*
X282488Y299851D01*
X292951Y299851D01*
X292951Y289388D01*
X292954Y289369D01*
X292952Y289349D01*
X292974Y289247D01*
X292990Y289145D01*
X293000Y289128D01*
X293004Y289108D01*
X293057Y289019D01*
X293106Y288928D01*
X293120Y288914D01*
X293130Y288897D01*
X293209Y288830D01*
X293284Y288759D01*
X293302Y288750D01*
X293317Y288737D01*
X293413Y288699D01*
X293507Y288655D01*
X293527Y288653D01*
X293545Y288646D01*
X293469Y288633D01*
X293452Y288624D01*
X293432Y288620D01*
X293343Y288567D01*
X293252Y288518D01*
X293238Y288504D01*
X293221Y288494D01*
X293154Y288415D01*
X293082Y288340D01*
X293074Y288322D01*
X293061Y288307D01*
X293022Y288210D01*
X292979Y288117D01*
X292977Y288097D01*
X292969Y288079D01*
X292951Y287912D01*
X292951Y269629D01*
X292093Y269800D01*
X290622Y270409D01*
X289459Y271186D01*
X289350Y271236D01*
X289241Y271287D01*
X289238Y271287D01*
X289235Y271288D01*
X289115Y271301D01*
X288997Y271314D01*
X288993Y271313D01*
X288990Y271313D01*
X288874Y271287D01*
X288756Y271261D01*
X288753Y271260D01*
X288750Y271259D01*
X288648Y271197D01*
X288545Y271135D01*
X288543Y271133D01*
X288540Y271131D01*
X288463Y271039D01*
X288385Y270948D01*
X288384Y270945D01*
X288382Y270943D01*
X288338Y270832D01*
X288293Y270720D01*
X288293Y270716D01*
X288292Y270714D01*
X288291Y270703D01*
X288275Y270553D01*
X288275Y260452D01*
X287281Y258054D01*
X273696Y244469D01*
X271298Y243475D01*
X173702Y243475D01*
G37*
%LPD*%
%LPC*%
G36*
X245149Y302849D02*
X245149Y302849D01*
X245149Y320371D01*
X246007Y320200D01*
X247478Y319591D01*
X248801Y318707D01*
X249462Y318046D01*
X249478Y318035D01*
X249490Y318019D01*
X249578Y317963D01*
X249661Y317903D01*
X249680Y317897D01*
X249697Y317886D01*
X249798Y317861D01*
X249897Y317830D01*
X249916Y317831D01*
X249936Y317826D01*
X250039Y317834D01*
X250142Y317837D01*
X250161Y317844D01*
X250181Y317845D01*
X250276Y317885D01*
X250373Y317921D01*
X250389Y317934D01*
X250407Y317941D01*
X250538Y318046D01*
X251199Y318707D01*
X252522Y319591D01*
X253993Y320200D01*
X254851Y320371D01*
X254851Y302849D01*
X245149Y302849D01*
G37*
%LPD*%
%LPC*%
G36*
X207049Y302849D02*
X207049Y302849D01*
X207049Y320371D01*
X207907Y320200D01*
X209378Y319591D01*
X210701Y318707D01*
X211362Y318046D01*
X211378Y318035D01*
X211390Y318019D01*
X211478Y317963D01*
X211561Y317903D01*
X211580Y317897D01*
X211597Y317886D01*
X211698Y317861D01*
X211797Y317830D01*
X211816Y317831D01*
X211836Y317826D01*
X211939Y317834D01*
X212042Y317837D01*
X212061Y317844D01*
X212081Y317845D01*
X212176Y317885D01*
X212273Y317921D01*
X212289Y317934D01*
X212307Y317941D01*
X212438Y318046D01*
X213099Y318707D01*
X214422Y319591D01*
X215893Y320200D01*
X216751Y320371D01*
X216751Y302849D01*
X207049Y302849D01*
G37*
%LPD*%
%LPC*%
G36*
X219749Y302849D02*
X219749Y302849D01*
X219749Y320371D01*
X220607Y320200D01*
X222078Y319591D01*
X223401Y318707D01*
X224062Y318046D01*
X224078Y318035D01*
X224090Y318019D01*
X224178Y317963D01*
X224261Y317903D01*
X224280Y317897D01*
X224297Y317886D01*
X224398Y317861D01*
X224497Y317830D01*
X224516Y317831D01*
X224536Y317826D01*
X224639Y317834D01*
X224742Y317837D01*
X224761Y317844D01*
X224781Y317845D01*
X224876Y317885D01*
X224973Y317921D01*
X224989Y317934D01*
X225007Y317941D01*
X225138Y318046D01*
X225799Y318707D01*
X227122Y319591D01*
X228593Y320200D01*
X229451Y320371D01*
X229451Y302849D01*
X219749Y302849D01*
G37*
%LPD*%
%LPC*%
G36*
X232449Y302849D02*
X232449Y302849D01*
X232449Y320371D01*
X233307Y320200D01*
X234778Y319591D01*
X236101Y318707D01*
X236762Y318046D01*
X236778Y318035D01*
X236790Y318019D01*
X236878Y317963D01*
X236961Y317903D01*
X236980Y317897D01*
X236997Y317886D01*
X237098Y317861D01*
X237197Y317830D01*
X237216Y317831D01*
X237236Y317826D01*
X237339Y317834D01*
X237442Y317837D01*
X237461Y317844D01*
X237481Y317845D01*
X237576Y317885D01*
X237673Y317921D01*
X237689Y317934D01*
X237707Y317941D01*
X237838Y318046D01*
X238499Y318707D01*
X239822Y319591D01*
X241293Y320200D01*
X242151Y320371D01*
X242151Y302849D01*
X232449Y302849D01*
G37*
%LPD*%
%LPC*%
G36*
X257849Y302849D02*
X257849Y302849D01*
X257849Y320371D01*
X258707Y320200D01*
X260178Y319591D01*
X261501Y318707D01*
X262162Y318046D01*
X262178Y318035D01*
X262190Y318019D01*
X262278Y317963D01*
X262361Y317903D01*
X262380Y317897D01*
X262397Y317886D01*
X262498Y317861D01*
X262597Y317830D01*
X262616Y317831D01*
X262636Y317826D01*
X262739Y317834D01*
X262842Y317837D01*
X262861Y317844D01*
X262881Y317845D01*
X262976Y317885D01*
X263073Y317921D01*
X263089Y317934D01*
X263107Y317941D01*
X263238Y318046D01*
X263899Y318707D01*
X265222Y319591D01*
X266693Y320200D01*
X267551Y320371D01*
X267551Y302849D01*
X257849Y302849D01*
G37*
%LPD*%
%LPC*%
G36*
X270549Y302849D02*
X270549Y302849D01*
X270549Y320371D01*
X271407Y320200D01*
X272878Y319591D01*
X274201Y318707D01*
X274862Y318046D01*
X274878Y318035D01*
X274890Y318019D01*
X274978Y317963D01*
X275061Y317903D01*
X275080Y317897D01*
X275097Y317886D01*
X275198Y317861D01*
X275297Y317830D01*
X275316Y317831D01*
X275336Y317826D01*
X275439Y317834D01*
X275542Y317837D01*
X275561Y317844D01*
X275581Y317845D01*
X275676Y317885D01*
X275773Y317921D01*
X275789Y317934D01*
X275807Y317941D01*
X275938Y318046D01*
X276599Y318707D01*
X277922Y319591D01*
X279393Y320200D01*
X280251Y320371D01*
X280251Y302849D01*
X270549Y302849D01*
G37*
%LPD*%
%LPC*%
G36*
X283249Y302849D02*
X283249Y302849D01*
X283249Y320371D01*
X284107Y320200D01*
X285578Y319591D01*
X286901Y318707D01*
X287562Y318046D01*
X287578Y318035D01*
X287590Y318019D01*
X287678Y317963D01*
X287761Y317903D01*
X287780Y317897D01*
X287797Y317886D01*
X287898Y317861D01*
X287997Y317830D01*
X288016Y317831D01*
X288036Y317826D01*
X288139Y317834D01*
X288242Y317837D01*
X288261Y317844D01*
X288281Y317845D01*
X288376Y317885D01*
X288473Y317921D01*
X288489Y317934D01*
X288507Y317941D01*
X288638Y318046D01*
X289299Y318707D01*
X290622Y319591D01*
X292093Y320200D01*
X292951Y320371D01*
X292951Y302849D01*
X283249Y302849D01*
G37*
%LPD*%
%LPC*%
G36*
X292093Y39800D02*
X292093Y39800D01*
X290622Y40409D01*
X289299Y41293D01*
X288638Y41954D01*
X288622Y41965D01*
X288610Y41981D01*
X288522Y42037D01*
X288439Y42097D01*
X288420Y42103D01*
X288403Y42114D01*
X288302Y42139D01*
X288203Y42170D01*
X288184Y42169D01*
X288164Y42174D01*
X288061Y42166D01*
X287958Y42163D01*
X287939Y42156D01*
X287919Y42155D01*
X287824Y42115D01*
X287727Y42079D01*
X287711Y42066D01*
X287693Y42059D01*
X287562Y41954D01*
X286901Y41293D01*
X285578Y40409D01*
X284107Y39800D01*
X283249Y39629D01*
X283249Y57151D01*
X292951Y57151D01*
X292951Y39629D01*
X292093Y39800D01*
G37*
%LPD*%
%LPC*%
G36*
X215893Y39800D02*
X215893Y39800D01*
X214422Y40409D01*
X213099Y41293D01*
X212438Y41954D01*
X212422Y41965D01*
X212410Y41981D01*
X212322Y42037D01*
X212239Y42097D01*
X212220Y42103D01*
X212203Y42114D01*
X212102Y42139D01*
X212003Y42170D01*
X211984Y42169D01*
X211964Y42174D01*
X211861Y42166D01*
X211758Y42163D01*
X211739Y42156D01*
X211719Y42155D01*
X211624Y42115D01*
X211527Y42079D01*
X211511Y42066D01*
X211493Y42059D01*
X211362Y41954D01*
X210701Y41293D01*
X209378Y40409D01*
X207907Y39800D01*
X207049Y39629D01*
X207049Y57151D01*
X216751Y57151D01*
X216751Y39629D01*
X215893Y39800D01*
G37*
%LPD*%
%LPC*%
G36*
X228593Y39800D02*
X228593Y39800D01*
X227122Y40409D01*
X225799Y41293D01*
X225138Y41954D01*
X225122Y41965D01*
X225110Y41981D01*
X225022Y42037D01*
X224939Y42097D01*
X224920Y42103D01*
X224903Y42114D01*
X224802Y42139D01*
X224703Y42170D01*
X224684Y42169D01*
X224664Y42174D01*
X224561Y42166D01*
X224458Y42163D01*
X224439Y42156D01*
X224419Y42155D01*
X224324Y42115D01*
X224227Y42079D01*
X224211Y42066D01*
X224193Y42059D01*
X224062Y41954D01*
X223401Y41293D01*
X222078Y40409D01*
X220607Y39800D01*
X219749Y39629D01*
X219749Y57151D01*
X229451Y57151D01*
X229451Y39629D01*
X228593Y39800D01*
G37*
%LPD*%
%LPC*%
G36*
X241293Y39800D02*
X241293Y39800D01*
X239822Y40409D01*
X238499Y41293D01*
X237838Y41954D01*
X237822Y41965D01*
X237810Y41981D01*
X237722Y42037D01*
X237639Y42097D01*
X237620Y42103D01*
X237603Y42114D01*
X237502Y42139D01*
X237403Y42170D01*
X237384Y42169D01*
X237364Y42174D01*
X237261Y42166D01*
X237158Y42163D01*
X237139Y42156D01*
X237119Y42155D01*
X237024Y42115D01*
X236927Y42079D01*
X236911Y42066D01*
X236893Y42059D01*
X236762Y41954D01*
X236101Y41293D01*
X234778Y40409D01*
X233307Y39800D01*
X232449Y39629D01*
X232449Y57151D01*
X242151Y57151D01*
X242151Y39629D01*
X241293Y39800D01*
G37*
%LPD*%
%LPC*%
G36*
X266693Y39800D02*
X266693Y39800D01*
X265222Y40409D01*
X263899Y41293D01*
X263238Y41954D01*
X263222Y41965D01*
X263210Y41981D01*
X263122Y42037D01*
X263039Y42097D01*
X263020Y42103D01*
X263003Y42114D01*
X262902Y42139D01*
X262803Y42170D01*
X262784Y42169D01*
X262764Y42174D01*
X262661Y42166D01*
X262558Y42163D01*
X262539Y42156D01*
X262519Y42155D01*
X262424Y42115D01*
X262327Y42079D01*
X262311Y42066D01*
X262293Y42059D01*
X262162Y41954D01*
X261501Y41293D01*
X260178Y40409D01*
X258707Y39800D01*
X257849Y39629D01*
X257849Y57151D01*
X267551Y57151D01*
X267551Y39629D01*
X266693Y39800D01*
G37*
%LPD*%
%LPC*%
G36*
X253993Y39800D02*
X253993Y39800D01*
X252522Y40409D01*
X251199Y41293D01*
X250538Y41954D01*
X250522Y41965D01*
X250510Y41981D01*
X250422Y42037D01*
X250339Y42097D01*
X250320Y42103D01*
X250303Y42114D01*
X250202Y42139D01*
X250103Y42170D01*
X250084Y42169D01*
X250064Y42174D01*
X249961Y42166D01*
X249858Y42163D01*
X249839Y42156D01*
X249819Y42155D01*
X249724Y42115D01*
X249627Y42079D01*
X249611Y42066D01*
X249593Y42059D01*
X249462Y41954D01*
X248801Y41293D01*
X247478Y40409D01*
X246007Y39800D01*
X245149Y39629D01*
X245149Y57151D01*
X254851Y57151D01*
X254851Y39629D01*
X253993Y39800D01*
G37*
%LPD*%
%LPC*%
G36*
X279393Y39800D02*
X279393Y39800D01*
X277922Y40409D01*
X276599Y41293D01*
X275938Y41954D01*
X275922Y41965D01*
X275910Y41981D01*
X275822Y42037D01*
X275739Y42097D01*
X275720Y42103D01*
X275703Y42114D01*
X275602Y42139D01*
X275503Y42170D01*
X275484Y42169D01*
X275464Y42174D01*
X275361Y42166D01*
X275258Y42163D01*
X275239Y42156D01*
X275219Y42155D01*
X275124Y42115D01*
X275027Y42079D01*
X275011Y42066D01*
X274993Y42059D01*
X274862Y41954D01*
X274201Y41293D01*
X272878Y40409D01*
X271407Y39800D01*
X270549Y39629D01*
X270549Y57151D01*
X280251Y57151D01*
X280251Y39629D01*
X279393Y39800D01*
G37*
%LPD*%
%LPC*%
G36*
X40723Y215623D02*
X40723Y215623D01*
X40723Y224261D01*
X47620Y224261D01*
X49199Y224011D01*
X50720Y223516D01*
X52145Y222790D01*
X53439Y221850D01*
X54570Y220719D01*
X55510Y219425D01*
X56236Y218000D01*
X56731Y216479D01*
X56866Y215623D01*
X40723Y215623D01*
G37*
%LPD*%
%LPC*%
G36*
X40723Y241023D02*
X40723Y241023D01*
X40723Y249661D01*
X47620Y249661D01*
X49199Y249411D01*
X50720Y248916D01*
X52145Y248190D01*
X53439Y247250D01*
X54570Y246119D01*
X55510Y244825D01*
X56236Y243400D01*
X56731Y241879D01*
X56866Y241023D01*
X40723Y241023D01*
G37*
%LPD*%
%LPC*%
G36*
X21534Y215623D02*
X21534Y215623D01*
X21669Y216479D01*
X22164Y218000D01*
X22890Y219425D01*
X23830Y220719D01*
X24961Y221850D01*
X26255Y222790D01*
X27680Y223516D01*
X29201Y224011D01*
X30780Y224261D01*
X37677Y224261D01*
X37677Y215623D01*
X21534Y215623D01*
G37*
%LPD*%
%LPC*%
G36*
X21534Y241023D02*
X21534Y241023D01*
X21669Y241879D01*
X22164Y243400D01*
X22890Y244825D01*
X23830Y246119D01*
X24961Y247250D01*
X26255Y248190D01*
X27680Y248916D01*
X29201Y249411D01*
X30780Y249661D01*
X37677Y249661D01*
X37677Y241023D01*
X21534Y241023D01*
G37*
%LPD*%
%LPC*%
G36*
X40723Y229339D02*
X40723Y229339D01*
X40723Y237977D01*
X56866Y237977D01*
X56731Y237121D01*
X56236Y235600D01*
X55510Y234175D01*
X54570Y232881D01*
X53439Y231750D01*
X52145Y230810D01*
X50720Y230084D01*
X49199Y229589D01*
X47620Y229339D01*
X40723Y229339D01*
G37*
%LPD*%
%LPC*%
G36*
X40723Y203939D02*
X40723Y203939D01*
X40723Y212577D01*
X56866Y212577D01*
X56731Y211721D01*
X56236Y210200D01*
X55510Y208775D01*
X54570Y207481D01*
X53439Y206350D01*
X52145Y205410D01*
X50720Y204684D01*
X49199Y204189D01*
X47620Y203939D01*
X40723Y203939D01*
G37*
%LPD*%
%LPC*%
G36*
X30780Y229339D02*
X30780Y229339D01*
X29201Y229589D01*
X27680Y230084D01*
X26255Y230810D01*
X24961Y231750D01*
X23830Y232881D01*
X22890Y234175D01*
X22164Y235600D01*
X21669Y237121D01*
X21534Y237977D01*
X37677Y237977D01*
X37677Y229339D01*
X30780Y229339D01*
G37*
%LPD*%
%LPC*%
G36*
X30780Y203939D02*
X30780Y203939D01*
X29201Y204189D01*
X27680Y204684D01*
X26255Y205410D01*
X24961Y206350D01*
X23830Y207481D01*
X22890Y208775D01*
X22164Y210200D01*
X21669Y211721D01*
X21534Y212577D01*
X37677Y212577D01*
X37677Y203939D01*
X30780Y203939D01*
G37*
%LPD*%
%LPC*%
G36*
X295949Y302849D02*
X295949Y302849D01*
X295949Y320371D01*
X296807Y320200D01*
X298278Y319591D01*
X299601Y318707D01*
X300727Y317581D01*
X301611Y316258D01*
X302220Y314787D01*
X302531Y313226D01*
X302531Y302849D01*
X295949Y302849D01*
G37*
%LPD*%
%LPC*%
G36*
X295949Y72849D02*
X295949Y72849D01*
X295949Y90371D01*
X296807Y90200D01*
X298278Y89591D01*
X299601Y88707D01*
X300727Y87581D01*
X301611Y86258D01*
X302220Y84787D01*
X302531Y83226D01*
X302531Y72849D01*
X295949Y72849D01*
G37*
%LPD*%
%LPC*%
G36*
X295949Y287151D02*
X295949Y287151D01*
X302531Y287151D01*
X302531Y276774D01*
X302220Y275213D01*
X301611Y273742D01*
X300727Y272419D01*
X299601Y271293D01*
X298278Y270409D01*
X296807Y269800D01*
X295949Y269629D01*
X295949Y287151D01*
G37*
%LPD*%
%LPC*%
G36*
X295949Y57151D02*
X295949Y57151D01*
X302531Y57151D01*
X302531Y46774D01*
X302220Y45213D01*
X301611Y43742D01*
X300727Y42419D01*
X299601Y41293D01*
X298278Y40409D01*
X296807Y39800D01*
X295949Y39629D01*
X295949Y57151D01*
G37*
%LPD*%
%LPC*%
G36*
X197469Y302849D02*
X197469Y302849D01*
X197469Y313226D01*
X197780Y314787D01*
X198389Y316258D01*
X199273Y317581D01*
X200399Y318707D01*
X201722Y319591D01*
X203193Y320200D01*
X204051Y320371D01*
X204051Y302849D01*
X197469Y302849D01*
G37*
%LPD*%
%LPC*%
G36*
X197469Y72849D02*
X197469Y72849D01*
X197469Y83226D01*
X197780Y84787D01*
X198389Y86258D01*
X199273Y87581D01*
X200399Y88707D01*
X201722Y89591D01*
X203193Y90200D01*
X204051Y90371D01*
X204051Y72849D01*
X197469Y72849D01*
G37*
%LPD*%
%LPC*%
G36*
X203193Y39800D02*
X203193Y39800D01*
X201722Y40409D01*
X200399Y41293D01*
X199273Y42419D01*
X198389Y43742D01*
X197780Y45213D01*
X197469Y46774D01*
X197469Y57151D01*
X204051Y57151D01*
X204051Y39629D01*
X203193Y39800D01*
G37*
%LPD*%
%LPC*%
G36*
X203193Y269800D02*
X203193Y269800D01*
X201722Y270409D01*
X200399Y271293D01*
X199273Y272419D01*
X198389Y273742D01*
X197780Y275213D01*
X197469Y276774D01*
X197469Y287151D01*
X204051Y287151D01*
X204051Y269629D01*
X203193Y269800D01*
G37*
%LPD*%
%LPC*%
G36*
X295949Y60149D02*
X295949Y60149D01*
X295949Y69851D01*
X302391Y69851D01*
X302220Y68993D01*
X301611Y67522D01*
X300727Y66199D01*
X300066Y65538D01*
X300055Y65522D01*
X300039Y65510D01*
X299983Y65422D01*
X299923Y65339D01*
X299917Y65320D01*
X299906Y65303D01*
X299881Y65202D01*
X299850Y65103D01*
X299851Y65084D01*
X299846Y65064D01*
X299854Y64961D01*
X299857Y64858D01*
X299864Y64839D01*
X299865Y64819D01*
X299905Y64724D01*
X299941Y64627D01*
X299954Y64611D01*
X299961Y64593D01*
X300066Y64462D01*
X300727Y63801D01*
X301611Y62478D01*
X302220Y61007D01*
X302391Y60149D01*
X295949Y60149D01*
G37*
%LPD*%
%LPC*%
G36*
X295949Y290149D02*
X295949Y290149D01*
X295949Y299851D01*
X302391Y299851D01*
X302220Y298993D01*
X301611Y297522D01*
X300727Y296199D01*
X300066Y295538D01*
X300055Y295522D01*
X300039Y295510D01*
X299983Y295422D01*
X299923Y295339D01*
X299917Y295320D01*
X299906Y295303D01*
X299881Y295202D01*
X299850Y295103D01*
X299851Y295084D01*
X299846Y295064D01*
X299854Y294961D01*
X299857Y294858D01*
X299864Y294839D01*
X299865Y294819D01*
X299905Y294724D01*
X299941Y294627D01*
X299954Y294611D01*
X299961Y294593D01*
X300066Y294462D01*
X300727Y293801D01*
X301611Y292478D01*
X302220Y291007D01*
X302391Y290149D01*
X295949Y290149D01*
G37*
%LPD*%
%LPC*%
G36*
X197609Y290149D02*
X197609Y290149D01*
X197780Y291007D01*
X198389Y292478D01*
X199273Y293801D01*
X199934Y294462D01*
X199945Y294478D01*
X199961Y294490D01*
X200017Y294578D01*
X200077Y294661D01*
X200083Y294680D01*
X200094Y294697D01*
X200119Y294798D01*
X200150Y294897D01*
X200149Y294916D01*
X200154Y294936D01*
X200146Y295039D01*
X200143Y295142D01*
X200136Y295161D01*
X200135Y295181D01*
X200095Y295276D01*
X200059Y295373D01*
X200046Y295389D01*
X200039Y295407D01*
X199934Y295538D01*
X199273Y296199D01*
X198389Y297522D01*
X197780Y298993D01*
X197609Y299851D01*
X204051Y299851D01*
X204051Y290149D01*
X197609Y290149D01*
G37*
%LPD*%
%LPC*%
G36*
X197609Y60149D02*
X197609Y60149D01*
X197780Y61007D01*
X198389Y62478D01*
X199273Y63801D01*
X199934Y64462D01*
X199945Y64478D01*
X199961Y64490D01*
X199992Y64539D01*
X199996Y64543D01*
X199999Y64549D01*
X200017Y64578D01*
X200077Y64661D01*
X200083Y64680D01*
X200094Y64697D01*
X200119Y64798D01*
X200150Y64897D01*
X200149Y64916D01*
X200154Y64936D01*
X200146Y65039D01*
X200143Y65142D01*
X200136Y65161D01*
X200135Y65181D01*
X200095Y65276D01*
X200059Y65373D01*
X200046Y65389D01*
X200039Y65407D01*
X199934Y65538D01*
X199273Y66199D01*
X198389Y67522D01*
X197780Y68993D01*
X197609Y69851D01*
X204051Y69851D01*
X204051Y60149D01*
X197609Y60149D01*
G37*
%LPD*%
%LPC*%
G36*
X39199Y214099D02*
X39199Y214099D01*
X39199Y214101D01*
X39201Y214101D01*
X39201Y214099D01*
X39199Y214099D01*
G37*
%LPD*%
%LPC*%
G36*
X39199Y239499D02*
X39199Y239499D01*
X39199Y239501D01*
X39201Y239501D01*
X39201Y239499D01*
X39199Y239499D01*
G37*
%LPD*%
D10*
X294450Y288650D02*
X294450Y277570D01*
X294450Y301350D02*
X294450Y312430D01*
X281750Y288650D02*
X281750Y277570D01*
X281750Y301350D02*
X281750Y312430D01*
X269050Y288650D02*
X269050Y277570D01*
X269050Y301350D02*
X269050Y312430D01*
X256350Y288650D02*
X256350Y277570D01*
X256350Y301350D02*
X256350Y312430D01*
X243650Y288650D02*
X243650Y277570D01*
X243650Y301350D02*
X243650Y312430D01*
X230950Y288650D02*
X230950Y277570D01*
X230950Y301350D02*
X230950Y312430D01*
X218250Y288650D02*
X218250Y277570D01*
X218250Y301350D02*
X218250Y312430D01*
X205550Y288650D02*
X205550Y277570D01*
X205550Y301350D02*
X205550Y312430D01*
X205550Y82430D02*
X205550Y71350D01*
X205550Y58650D02*
X205550Y47570D01*
X218250Y71350D02*
X218250Y82430D01*
X218250Y58650D02*
X218250Y47570D01*
X230950Y71350D02*
X230950Y82430D01*
X230950Y58650D02*
X230950Y47570D01*
X243650Y71350D02*
X243650Y82430D01*
X243650Y58650D02*
X243650Y47570D01*
X256350Y71350D02*
X256350Y82430D01*
X256350Y58650D02*
X256350Y47570D01*
X269050Y71350D02*
X269050Y82430D01*
X269050Y58650D02*
X269050Y47570D01*
X281750Y71350D02*
X281750Y82430D01*
X281750Y58650D02*
X281750Y47570D01*
X294450Y71350D02*
X294450Y82430D01*
X294450Y58650D02*
X294450Y47570D01*
D11*
X46820Y290300D02*
X31580Y290300D01*
X31580Y264900D02*
X46820Y264900D01*
X46820Y239500D02*
X31580Y239500D01*
X31580Y214100D02*
X46820Y214100D01*
X46820Y188700D02*
X31580Y188700D01*
X31580Y163300D02*
X46820Y163300D01*
X46820Y137900D02*
X31580Y137900D01*
X31580Y112500D02*
X46820Y112500D01*
X46820Y87100D02*
X31580Y87100D01*
X31580Y61700D02*
X46820Y61700D01*
D12*
X281750Y261750D02*
X281750Y288650D01*
X281750Y261750D02*
X270000Y250000D01*
X220000Y250000D02*
X175000Y250000D01*
X220000Y250000D02*
X270000Y250000D01*
X39500Y290000D02*
X39200Y290300D01*
X39200Y264900D01*
X125000Y264900D01*
X145100Y264900D01*
X218250Y251750D02*
X218250Y288650D01*
X218250Y251750D02*
X220000Y250000D01*
X160100Y264900D02*
X145100Y264900D01*
X160100Y264900D02*
X175000Y250000D01*
D13*
X218250Y81750D02*
X218250Y71350D01*
X141700Y61700D02*
X39200Y61700D01*
X218250Y71350D02*
X218250Y91750D01*
X210000Y100000D01*
X180000Y100000D02*
X141700Y61700D01*
X180000Y100000D02*
X210000Y100000D01*
X230000Y77300D02*
X230950Y71350D01*
X112100Y87100D02*
X39200Y87100D01*
X112100Y87100D02*
X135000Y110000D01*
X220000Y110000D01*
X230000Y100000D02*
X230000Y77300D01*
X230000Y100000D02*
X220000Y110000D01*
X243650Y111350D02*
X243650Y71350D01*
X243650Y111350D02*
X230000Y125000D01*
X112500Y112500D02*
X39200Y112500D01*
X112500Y112500D02*
X125000Y125000D01*
X230000Y125000D01*
X256350Y123650D02*
X256350Y71350D01*
X256350Y123650D02*
X242100Y137900D01*
X39200Y137900D01*
X39200Y163300D02*
X236700Y163300D01*
X269050Y130950D02*
X269050Y71350D01*
X269050Y130950D02*
X236700Y163300D01*
X280000Y78100D02*
X281750Y71350D01*
X280000Y78100D02*
X280000Y140000D01*
X231300Y188700D02*
X39200Y188700D01*
X231300Y188700D02*
X280000Y140000D01*
M02*
