M48
;GenerationSoftware,Autodesk,EAGLE,9.0.1*%
;CreationDate,2018-08-01T04:25:01Z*%
FMAT,2
ICI,OFF
METRIC,TZ,000.000
T4C0.600
T3C1.016
T2C3.175
%
G90
M71
T2
X4000Y2000
X43000Y2000
X43000Y33000
X4000Y33000
T3
X3920Y6170
X3920Y8710
X3920Y11250
X3920Y13790
X3920Y16330
X3920Y18870
X3920Y21410
X3920Y23950
X3920Y26490
X3920Y29030
T4
X26905Y7135
X29445Y28865
X29445Y30135
X28175Y28865
X28175Y30135
X26905Y28865
X26905Y30135
X25635Y28865
X25635Y30135
X24365Y28865
X24365Y30135
X29445Y5865
X29445Y7135
X28175Y5865
X28175Y7135
X26905Y5865
X23095Y28865
X25635Y5865
X25635Y7135
X24365Y5865
X24365Y7135
X23095Y5865
X23095Y7135
X21825Y5865
X21825Y7135
X20555Y5865
X20555Y7135
X20555Y30135
X20555Y28865
X21825Y30135
X21825Y28865
X23095Y30135
M30