G04 EAGLE Gerber X2 export*
%TF.Part,Single*%
%TF.FileFunction,Profile,NP*%
%TF.FilePolarity,Positive*%
%TF.GenerationSoftware,Autodesk,EAGLE,9.0.1*%
%TF.CreationDate,2018-08-01T04:25:01Z*%
G75*
%MOMM*%
%FSLAX34Y34*%
%LPD*%
%AMOC8*
5,1,8,0,0,1.08239X$1,22.5*%
G01*
%ADD10C,0.254000*%


D10*
X0Y0D02*
X450000Y0D01*
X450000Y360000D01*
X0Y360000D01*
X0Y0D01*
X55875Y329480D02*
X55807Y328443D01*
X55671Y327413D01*
X55469Y326393D01*
X55200Y325389D01*
X54865Y324405D01*
X54468Y323445D01*
X54008Y322513D01*
X53488Y321612D01*
X52911Y320748D01*
X52278Y319924D01*
X51593Y319142D01*
X50858Y318407D01*
X50076Y317722D01*
X49252Y317089D01*
X48388Y316512D01*
X47487Y315992D01*
X46555Y315532D01*
X45595Y315135D01*
X44611Y314800D01*
X43607Y314531D01*
X42587Y314329D01*
X41557Y314193D01*
X40520Y314125D01*
X39480Y314125D01*
X38443Y314193D01*
X37413Y314329D01*
X36393Y314531D01*
X35389Y314800D01*
X34405Y315135D01*
X33445Y315532D01*
X32513Y315992D01*
X31612Y316512D01*
X30748Y317089D01*
X29924Y317722D01*
X29142Y318407D01*
X28407Y319142D01*
X27722Y319924D01*
X27089Y320748D01*
X26512Y321612D01*
X25992Y322513D01*
X25532Y323445D01*
X25135Y324405D01*
X24800Y325389D01*
X24531Y326393D01*
X24329Y327413D01*
X24193Y328443D01*
X24125Y329480D01*
X24125Y330520D01*
X24193Y331557D01*
X24329Y332587D01*
X24531Y333607D01*
X24800Y334611D01*
X25135Y335595D01*
X25532Y336555D01*
X25992Y337487D01*
X26512Y338388D01*
X27089Y339252D01*
X27722Y340076D01*
X28407Y340858D01*
X29142Y341593D01*
X29924Y342278D01*
X30748Y342911D01*
X31612Y343488D01*
X32513Y344008D01*
X33445Y344468D01*
X34405Y344865D01*
X35389Y345200D01*
X36393Y345469D01*
X37413Y345671D01*
X38443Y345807D01*
X39480Y345875D01*
X40520Y345875D01*
X41557Y345807D01*
X42587Y345671D01*
X43607Y345469D01*
X44611Y345200D01*
X45595Y344865D01*
X46555Y344468D01*
X47487Y344008D01*
X48388Y343488D01*
X49252Y342911D01*
X50076Y342278D01*
X50858Y341593D01*
X51593Y340858D01*
X52278Y340076D01*
X52911Y339252D01*
X53488Y338388D01*
X54008Y337487D01*
X54468Y336555D01*
X54865Y335595D01*
X55200Y334611D01*
X55469Y333607D01*
X55671Y332587D01*
X55807Y331557D01*
X55875Y330520D01*
X55875Y329480D01*
X55875Y19480D02*
X55807Y18443D01*
X55671Y17413D01*
X55469Y16393D01*
X55200Y15389D01*
X54865Y14405D01*
X54468Y13445D01*
X54008Y12513D01*
X53488Y11612D01*
X52911Y10748D01*
X52278Y9924D01*
X51593Y9142D01*
X50858Y8407D01*
X50076Y7722D01*
X49252Y7089D01*
X48388Y6512D01*
X47487Y5992D01*
X46555Y5532D01*
X45595Y5135D01*
X44611Y4800D01*
X43607Y4531D01*
X42587Y4329D01*
X41557Y4193D01*
X40520Y4125D01*
X39480Y4125D01*
X38443Y4193D01*
X37413Y4329D01*
X36393Y4531D01*
X35389Y4800D01*
X34405Y5135D01*
X33445Y5532D01*
X32513Y5992D01*
X31612Y6512D01*
X30748Y7089D01*
X29924Y7722D01*
X29142Y8407D01*
X28407Y9142D01*
X27722Y9924D01*
X27089Y10748D01*
X26512Y11612D01*
X25992Y12513D01*
X25532Y13445D01*
X25135Y14405D01*
X24800Y15389D01*
X24531Y16393D01*
X24329Y17413D01*
X24193Y18443D01*
X24125Y19480D01*
X24125Y20520D01*
X24193Y21557D01*
X24329Y22587D01*
X24531Y23607D01*
X24800Y24611D01*
X25135Y25595D01*
X25532Y26555D01*
X25992Y27487D01*
X26512Y28388D01*
X27089Y29252D01*
X27722Y30076D01*
X28407Y30858D01*
X29142Y31593D01*
X29924Y32278D01*
X30748Y32911D01*
X31612Y33488D01*
X32513Y34008D01*
X33445Y34468D01*
X34405Y34865D01*
X35389Y35200D01*
X36393Y35469D01*
X37413Y35671D01*
X38443Y35807D01*
X39480Y35875D01*
X40520Y35875D01*
X41557Y35807D01*
X42587Y35671D01*
X43607Y35469D01*
X44611Y35200D01*
X45595Y34865D01*
X46555Y34468D01*
X47487Y34008D01*
X48388Y33488D01*
X49252Y32911D01*
X50076Y32278D01*
X50858Y31593D01*
X51593Y30858D01*
X52278Y30076D01*
X52911Y29252D01*
X53488Y28388D01*
X54008Y27487D01*
X54468Y26555D01*
X54865Y25595D01*
X55200Y24611D01*
X55469Y23607D01*
X55671Y22587D01*
X55807Y21557D01*
X55875Y20520D01*
X55875Y19480D01*
X445875Y19480D02*
X445807Y18443D01*
X445671Y17413D01*
X445469Y16393D01*
X445200Y15389D01*
X444865Y14405D01*
X444468Y13445D01*
X444008Y12513D01*
X443488Y11612D01*
X442911Y10748D01*
X442278Y9924D01*
X441593Y9142D01*
X440858Y8407D01*
X440076Y7722D01*
X439252Y7089D01*
X438388Y6512D01*
X437487Y5992D01*
X436555Y5532D01*
X435595Y5135D01*
X434611Y4800D01*
X433607Y4531D01*
X432587Y4329D01*
X431557Y4193D01*
X430520Y4125D01*
X429480Y4125D01*
X428443Y4193D01*
X427413Y4329D01*
X426393Y4531D01*
X425389Y4800D01*
X424405Y5135D01*
X423445Y5532D01*
X422513Y5992D01*
X421612Y6512D01*
X420748Y7089D01*
X419924Y7722D01*
X419142Y8407D01*
X418407Y9142D01*
X417722Y9924D01*
X417089Y10748D01*
X416512Y11612D01*
X415992Y12513D01*
X415532Y13445D01*
X415135Y14405D01*
X414800Y15389D01*
X414531Y16393D01*
X414329Y17413D01*
X414193Y18443D01*
X414125Y19480D01*
X414125Y20520D01*
X414193Y21557D01*
X414329Y22587D01*
X414531Y23607D01*
X414800Y24611D01*
X415135Y25595D01*
X415532Y26555D01*
X415992Y27487D01*
X416512Y28388D01*
X417089Y29252D01*
X417722Y30076D01*
X418407Y30858D01*
X419142Y31593D01*
X419924Y32278D01*
X420748Y32911D01*
X421612Y33488D01*
X422513Y34008D01*
X423445Y34468D01*
X424405Y34865D01*
X425389Y35200D01*
X426393Y35469D01*
X427413Y35671D01*
X428443Y35807D01*
X429480Y35875D01*
X430520Y35875D01*
X431557Y35807D01*
X432587Y35671D01*
X433607Y35469D01*
X434611Y35200D01*
X435595Y34865D01*
X436555Y34468D01*
X437487Y34008D01*
X438388Y33488D01*
X439252Y32911D01*
X440076Y32278D01*
X440858Y31593D01*
X441593Y30858D01*
X442278Y30076D01*
X442911Y29252D01*
X443488Y28388D01*
X444008Y27487D01*
X444468Y26555D01*
X444865Y25595D01*
X445200Y24611D01*
X445469Y23607D01*
X445671Y22587D01*
X445807Y21557D01*
X445875Y20520D01*
X445875Y19480D01*
X445875Y329480D02*
X445807Y328443D01*
X445671Y327413D01*
X445469Y326393D01*
X445200Y325389D01*
X444865Y324405D01*
X444468Y323445D01*
X444008Y322513D01*
X443488Y321612D01*
X442911Y320748D01*
X442278Y319924D01*
X441593Y319142D01*
X440858Y318407D01*
X440076Y317722D01*
X439252Y317089D01*
X438388Y316512D01*
X437487Y315992D01*
X436555Y315532D01*
X435595Y315135D01*
X434611Y314800D01*
X433607Y314531D01*
X432587Y314329D01*
X431557Y314193D01*
X430520Y314125D01*
X429480Y314125D01*
X428443Y314193D01*
X427413Y314329D01*
X426393Y314531D01*
X425389Y314800D01*
X424405Y315135D01*
X423445Y315532D01*
X422513Y315992D01*
X421612Y316512D01*
X420748Y317089D01*
X419924Y317722D01*
X419142Y318407D01*
X418407Y319142D01*
X417722Y319924D01*
X417089Y320748D01*
X416512Y321612D01*
X415992Y322513D01*
X415532Y323445D01*
X415135Y324405D01*
X414800Y325389D01*
X414531Y326393D01*
X414329Y327413D01*
X414193Y328443D01*
X414125Y329480D01*
X414125Y330520D01*
X414193Y331557D01*
X414329Y332587D01*
X414531Y333607D01*
X414800Y334611D01*
X415135Y335595D01*
X415532Y336555D01*
X415992Y337487D01*
X416512Y338388D01*
X417089Y339252D01*
X417722Y340076D01*
X418407Y340858D01*
X419142Y341593D01*
X419924Y342278D01*
X420748Y342911D01*
X421612Y343488D01*
X422513Y344008D01*
X423445Y344468D01*
X424405Y344865D01*
X425389Y345200D01*
X426393Y345469D01*
X427413Y345671D01*
X428443Y345807D01*
X429480Y345875D01*
X430520Y345875D01*
X431557Y345807D01*
X432587Y345671D01*
X433607Y345469D01*
X434611Y345200D01*
X435595Y344865D01*
X436555Y344468D01*
X437487Y344008D01*
X438388Y343488D01*
X439252Y342911D01*
X440076Y342278D01*
X440858Y341593D01*
X441593Y340858D01*
X442278Y340076D01*
X442911Y339252D01*
X443488Y338388D01*
X444008Y337487D01*
X444468Y336555D01*
X444865Y335595D01*
X445200Y334611D01*
X445469Y333607D01*
X445671Y332587D01*
X445807Y331557D01*
X445875Y330520D01*
X445875Y329480D01*
X55875Y329480D02*
X55807Y328443D01*
X55671Y327413D01*
X55469Y326393D01*
X55200Y325389D01*
X54865Y324405D01*
X54468Y323445D01*
X54008Y322513D01*
X53488Y321612D01*
X52911Y320748D01*
X52278Y319924D01*
X51593Y319142D01*
X50858Y318407D01*
X50076Y317722D01*
X49252Y317089D01*
X48388Y316512D01*
X47487Y315992D01*
X46555Y315532D01*
X45595Y315135D01*
X44611Y314800D01*
X43607Y314531D01*
X42587Y314329D01*
X41557Y314193D01*
X40520Y314125D01*
X39480Y314125D01*
X38443Y314193D01*
X37413Y314329D01*
X36393Y314531D01*
X35389Y314800D01*
X34405Y315135D01*
X33445Y315532D01*
X32513Y315992D01*
X31612Y316512D01*
X30748Y317089D01*
X29924Y317722D01*
X29142Y318407D01*
X28407Y319142D01*
X27722Y319924D01*
X27089Y320748D01*
X26512Y321612D01*
X25992Y322513D01*
X25532Y323445D01*
X25135Y324405D01*
X24800Y325389D01*
X24531Y326393D01*
X24329Y327413D01*
X24193Y328443D01*
X24125Y329480D01*
X24125Y330520D01*
X24193Y331557D01*
X24329Y332587D01*
X24531Y333607D01*
X24800Y334611D01*
X25135Y335595D01*
X25532Y336555D01*
X25992Y337487D01*
X26512Y338388D01*
X27089Y339252D01*
X27722Y340076D01*
X28407Y340858D01*
X29142Y341593D01*
X29924Y342278D01*
X30748Y342911D01*
X31612Y343488D01*
X32513Y344008D01*
X33445Y344468D01*
X34405Y344865D01*
X35389Y345200D01*
X36393Y345469D01*
X37413Y345671D01*
X38443Y345807D01*
X39480Y345875D01*
X40520Y345875D01*
X41557Y345807D01*
X42587Y345671D01*
X43607Y345469D01*
X44611Y345200D01*
X45595Y344865D01*
X46555Y344468D01*
X47487Y344008D01*
X48388Y343488D01*
X49252Y342911D01*
X50076Y342278D01*
X50858Y341593D01*
X51593Y340858D01*
X52278Y340076D01*
X52911Y339252D01*
X53488Y338388D01*
X54008Y337487D01*
X54468Y336555D01*
X54865Y335595D01*
X55200Y334611D01*
X55469Y333607D01*
X55671Y332587D01*
X55807Y331557D01*
X55875Y330520D01*
X55875Y329480D01*
X55875Y19480D02*
X55807Y18443D01*
X55671Y17413D01*
X55469Y16393D01*
X55200Y15389D01*
X54865Y14405D01*
X54468Y13445D01*
X54008Y12513D01*
X53488Y11612D01*
X52911Y10748D01*
X52278Y9924D01*
X51593Y9142D01*
X50858Y8407D01*
X50076Y7722D01*
X49252Y7089D01*
X48388Y6512D01*
X47487Y5992D01*
X46555Y5532D01*
X45595Y5135D01*
X44611Y4800D01*
X43607Y4531D01*
X42587Y4329D01*
X41557Y4193D01*
X40520Y4125D01*
X39480Y4125D01*
X38443Y4193D01*
X37413Y4329D01*
X36393Y4531D01*
X35389Y4800D01*
X34405Y5135D01*
X33445Y5532D01*
X32513Y5992D01*
X31612Y6512D01*
X30748Y7089D01*
X29924Y7722D01*
X29142Y8407D01*
X28407Y9142D01*
X27722Y9924D01*
X27089Y10748D01*
X26512Y11612D01*
X25992Y12513D01*
X25532Y13445D01*
X25135Y14405D01*
X24800Y15389D01*
X24531Y16393D01*
X24329Y17413D01*
X24193Y18443D01*
X24125Y19480D01*
X24125Y20520D01*
X24193Y21557D01*
X24329Y22587D01*
X24531Y23607D01*
X24800Y24611D01*
X25135Y25595D01*
X25532Y26555D01*
X25992Y27487D01*
X26512Y28388D01*
X27089Y29252D01*
X27722Y30076D01*
X28407Y30858D01*
X29142Y31593D01*
X29924Y32278D01*
X30748Y32911D01*
X31612Y33488D01*
X32513Y34008D01*
X33445Y34468D01*
X34405Y34865D01*
X35389Y35200D01*
X36393Y35469D01*
X37413Y35671D01*
X38443Y35807D01*
X39480Y35875D01*
X40520Y35875D01*
X41557Y35807D01*
X42587Y35671D01*
X43607Y35469D01*
X44611Y35200D01*
X45595Y34865D01*
X46555Y34468D01*
X47487Y34008D01*
X48388Y33488D01*
X49252Y32911D01*
X50076Y32278D01*
X50858Y31593D01*
X51593Y30858D01*
X52278Y30076D01*
X52911Y29252D01*
X53488Y28388D01*
X54008Y27487D01*
X54468Y26555D01*
X54865Y25595D01*
X55200Y24611D01*
X55469Y23607D01*
X55671Y22587D01*
X55807Y21557D01*
X55875Y20520D01*
X55875Y19480D01*
X445875Y19480D02*
X445807Y18443D01*
X445671Y17413D01*
X445469Y16393D01*
X445200Y15389D01*
X444865Y14405D01*
X444468Y13445D01*
X444008Y12513D01*
X443488Y11612D01*
X442911Y10748D01*
X442278Y9924D01*
X441593Y9142D01*
X440858Y8407D01*
X440076Y7722D01*
X439252Y7089D01*
X438388Y6512D01*
X437487Y5992D01*
X436555Y5532D01*
X435595Y5135D01*
X434611Y4800D01*
X433607Y4531D01*
X432587Y4329D01*
X431557Y4193D01*
X430520Y4125D01*
X429480Y4125D01*
X428443Y4193D01*
X427413Y4329D01*
X426393Y4531D01*
X425389Y4800D01*
X424405Y5135D01*
X423445Y5532D01*
X422513Y5992D01*
X421612Y6512D01*
X420748Y7089D01*
X419924Y7722D01*
X419142Y8407D01*
X418407Y9142D01*
X417722Y9924D01*
X417089Y10748D01*
X416512Y11612D01*
X415992Y12513D01*
X415532Y13445D01*
X415135Y14405D01*
X414800Y15389D01*
X414531Y16393D01*
X414329Y17413D01*
X414193Y18443D01*
X414125Y19480D01*
X414125Y20520D01*
X414193Y21557D01*
X414329Y22587D01*
X414531Y23607D01*
X414800Y24611D01*
X415135Y25595D01*
X415532Y26555D01*
X415992Y27487D01*
X416512Y28388D01*
X417089Y29252D01*
X417722Y30076D01*
X418407Y30858D01*
X419142Y31593D01*
X419924Y32278D01*
X420748Y32911D01*
X421612Y33488D01*
X422513Y34008D01*
X423445Y34468D01*
X424405Y34865D01*
X425389Y35200D01*
X426393Y35469D01*
X427413Y35671D01*
X428443Y35807D01*
X429480Y35875D01*
X430520Y35875D01*
X431557Y35807D01*
X432587Y35671D01*
X433607Y35469D01*
X434611Y35200D01*
X435595Y34865D01*
X436555Y34468D01*
X437487Y34008D01*
X438388Y33488D01*
X439252Y32911D01*
X440076Y32278D01*
X440858Y31593D01*
X441593Y30858D01*
X442278Y30076D01*
X442911Y29252D01*
X443488Y28388D01*
X444008Y27487D01*
X444468Y26555D01*
X444865Y25595D01*
X445200Y24611D01*
X445469Y23607D01*
X445671Y22587D01*
X445807Y21557D01*
X445875Y20520D01*
X445875Y19480D01*
X445875Y329480D02*
X445807Y328443D01*
X445671Y327413D01*
X445469Y326393D01*
X445200Y325389D01*
X444865Y324405D01*
X444468Y323445D01*
X444008Y322513D01*
X443488Y321612D01*
X442911Y320748D01*
X442278Y319924D01*
X441593Y319142D01*
X440858Y318407D01*
X440076Y317722D01*
X439252Y317089D01*
X438388Y316512D01*
X437487Y315992D01*
X436555Y315532D01*
X435595Y315135D01*
X434611Y314800D01*
X433607Y314531D01*
X432587Y314329D01*
X431557Y314193D01*
X430520Y314125D01*
X429480Y314125D01*
X428443Y314193D01*
X427413Y314329D01*
X426393Y314531D01*
X425389Y314800D01*
X424405Y315135D01*
X423445Y315532D01*
X422513Y315992D01*
X421612Y316512D01*
X420748Y317089D01*
X419924Y317722D01*
X419142Y318407D01*
X418407Y319142D01*
X417722Y319924D01*
X417089Y320748D01*
X416512Y321612D01*
X415992Y322513D01*
X415532Y323445D01*
X415135Y324405D01*
X414800Y325389D01*
X414531Y326393D01*
X414329Y327413D01*
X414193Y328443D01*
X414125Y329480D01*
X414125Y330520D01*
X414193Y331557D01*
X414329Y332587D01*
X414531Y333607D01*
X414800Y334611D01*
X415135Y335595D01*
X415532Y336555D01*
X415992Y337487D01*
X416512Y338388D01*
X417089Y339252D01*
X417722Y340076D01*
X418407Y340858D01*
X419142Y341593D01*
X419924Y342278D01*
X420748Y342911D01*
X421612Y343488D01*
X422513Y344008D01*
X423445Y344468D01*
X424405Y344865D01*
X425389Y345200D01*
X426393Y345469D01*
X427413Y345671D01*
X428443Y345807D01*
X429480Y345875D01*
X430520Y345875D01*
X431557Y345807D01*
X432587Y345671D01*
X433607Y345469D01*
X434611Y345200D01*
X435595Y344865D01*
X436555Y344468D01*
X437487Y344008D01*
X438388Y343488D01*
X439252Y342911D01*
X440076Y342278D01*
X440858Y341593D01*
X441593Y340858D01*
X442278Y340076D01*
X442911Y339252D01*
X443488Y338388D01*
X444008Y337487D01*
X444468Y336555D01*
X444865Y335595D01*
X445200Y334611D01*
X445469Y333607D01*
X445671Y332587D01*
X445807Y331557D01*
X445875Y330520D01*
X445875Y329480D01*
M02*
